<?xml version="1.0" encoding="utf-8"?>
<!-- Generator: Adobe Illustrator 22.0.1, SVG Export Plug-In . SVG Version: 6.00 Build 0)  -->
<svg version="1.1" baseProfile="tiny" xmlns="http://www.w3.org/2000/svg" xmlns:xlink="http://www.w3.org/1999/xlink" x="0px"
	 y="0px" viewBox="0 0 1920 1080" xml:space="preserve">
<g id="Layer_2">
	<polygon fill="#1E1E1E" stroke="#1E1E1E" stroke-width="10" stroke-miterlimit="10" points="1104,198 816,198 618,387 618,693 
		825,882 1104,882 1302,693 1302,387 	"/>
</g>
<g id="Layer_1">
	
		<line fill="none" stroke="#323232" stroke-width="10" stroke-linecap="round" stroke-linejoin="round" stroke-miterlimit="10" x1="960" y1="468" x2="816" y2="612"/>
	
		<line fill="none" stroke="#323232" stroke-width="10" stroke-linecap="round" stroke-linejoin="round" stroke-miterlimit="10" x1="888" y1="405" x2="915" y2="459"/>
	
		<line fill="none" stroke="#FF0078" stroke-width="10" stroke-linecap="round" stroke-linejoin="round" stroke-miterlimit="10" x1="960" y1="243" x2="888" y2="405"/>
	
		<line fill="none" stroke="#FF0078" stroke-width="10" stroke-linecap="round" stroke-linejoin="round" stroke-miterlimit="10" x1="888" y1="540" x2="933" y2="603"/>
	
		<line fill="none" stroke="#323232" stroke-width="10" stroke-linecap="round" stroke-linejoin="round" stroke-miterlimit="10" x1="897" y1="810" x2="960" y2="837"/>
	
		<line fill="none" stroke="#323232" stroke-width="10" stroke-linecap="round" stroke-linejoin="round" stroke-miterlimit="10" x1="897" y1="747" x2="897" y2="810"/>
	
		<line fill="none" stroke="#FF0078" stroke-width="10" stroke-linecap="round" stroke-linejoin="round" stroke-miterlimit="10" x1="915" y1="459" x2="960" y2="396"/>
	
		<line fill="none" stroke="#323232" stroke-width="10" stroke-linecap="round" stroke-linejoin="round" stroke-miterlimit="10" x1="888" y1="666" x2="816" y2="612"/>
	
		<line fill="none" stroke="#FF0078" stroke-width="10" stroke-linecap="round" stroke-linejoin="round" stroke-miterlimit="10" x1="888" y1="540" x2="915" y2="459"/>
	
		<line fill="none" stroke="#323232" stroke-width="10" stroke-linecap="round" stroke-linejoin="round" stroke-miterlimit="10" x1="897" y1="747" x2="825" y2="693"/>
	
		<line fill="none" stroke="#FF0078" stroke-width="10" stroke-linecap="round" stroke-linejoin="round" stroke-miterlimit="10" x1="987" y1="603.001" x2="986.999" y2="747.001"/>
	
		<line fill="none" stroke="#323232" stroke-width="10" stroke-linecap="round" stroke-linejoin="round" stroke-miterlimit="10" x1="1032" y1="405" x2="1005" y2="459"/>
	
		<line fill="none" stroke="#FF0078" stroke-width="10" stroke-linecap="round" stroke-linejoin="round" stroke-miterlimit="10" x1="960" y1="243" x2="1032" y2="405"/>
	
		<line fill="none" stroke="#323232" stroke-width="10" stroke-linecap="round" stroke-linejoin="round" stroke-miterlimit="10" x1="1023" y1="810" x2="960" y2="837"/>
	
		<line fill="none" stroke="#323232" stroke-width="10" stroke-linecap="round" stroke-linejoin="round" stroke-miterlimit="10" x1="1023" y1="747" x2="1023" y2="810"/>
	
		<line fill="none" stroke="#FF0078" stroke-width="10" stroke-linecap="round" stroke-linejoin="round" stroke-miterlimit="10" x1="1005" y1="459" x2="960" y2="396"/>
	
		<line fill="none" stroke="#323232" stroke-width="10" stroke-linecap="round" stroke-linejoin="round" stroke-miterlimit="10" x1="960" y1="468" x2="1104" y2="612"/>
	
		<line fill="none" stroke="#FF0078" stroke-width="10" stroke-linecap="round" stroke-linejoin="round" stroke-miterlimit="10" x1="1032" y1="540" x2="1005" y2="459"/>
	
		<line fill="none" stroke="#323232" stroke-width="10" stroke-linecap="round" stroke-linejoin="round" stroke-miterlimit="10" x1="1032" y1="666" x2="1104" y2="612"/>
	
		<line fill="none" stroke="#323232" stroke-width="10" stroke-linecap="round" stroke-linejoin="round" stroke-miterlimit="10" x1="1023" y1="747" x2="1095" y2="693"/>
	
		<line fill="none" stroke="#FF0078" stroke-width="10" stroke-linecap="round" stroke-linejoin="round" stroke-miterlimit="10" x1="1032" y1="540" x2="987" y2="603"/>
	
		<line fill="none" stroke="#FF0078" stroke-width="10" stroke-linecap="round" stroke-linejoin="round" stroke-miterlimit="10" x1="960" y1="279" x2="960" y2="837"/>
	
		<line fill="none" stroke="#FF0078" stroke-width="10" stroke-linecap="round" stroke-linejoin="round" stroke-miterlimit="10" x1="933" y1="603.001" x2="933.001" y2="747.001"/>
</g>
</svg>
