<?xml version="1.0" encoding="utf-8"?>
<!-- Generator: Adobe Illustrator 22.1.0, SVG Export Plug-In . SVG Version: 6.00 Build 0)  -->
<svg version="1.1" id="Ebene_1" xmlns="http://www.w3.org/2000/svg" xmlns:xlink="http://www.w3.org/1999/xlink" x="0px" y="0px"
	 viewBox="0 0 500 500" style="enable-background:new 0 0 500 500;" xml:space="preserve">
<style type="text/css">
	.st0{fill:#FF0078;}
	.st1{fill:#CC0060;}
	.st2{fill:#FFFFFF;}
</style>
<ellipse transform="matrix(0.7071 -0.7071 0.7071 0.7071 -103.5533 250.0002)" class="st0" cx="250" cy="250" rx="153.1" ry="153.1"/>
<path class="st1" d="M250,96.9v306.2c84.6,0,153.1-68.6,153.1-153.1S334.6,96.9,250,96.9z"/>
<path class="st2" d="M331.1,299.3l-26.2-26.2c-5.2-5.2-13.9-5-19.3,0.4l-13.2,13.2c-0.8-0.5-1.7-0.9-2.6-1.5
	c-8.3-4.6-19.8-11-31.8-23c-12.1-12.1-18.4-23.5-23-31.8c-0.5-0.9-1-1.7-1.4-2.5l8.9-8.9l4.4-4.4c5.4-5.4,5.6-14.1,0.4-19.3
	l-26.2-26.2c-5.2-5.2-13.9-5.1-19.3,0.4l-7.4,7.4l0.2,0.2c-2.5,3.2-4.6,6.8-6.1,10.7c-1.4,3.7-2.3,7.3-2.7,10.9
	c-3.5,28.7,9.7,55,45.3,90.6c49.2,49.2,88.9,45.5,90.6,45.3c3.7-0.4,7.3-1.3,10.9-2.7c3.9-1.5,7.5-3.6,10.7-6.1l0.2,0.1l7.5-7.3
	C336.2,313.2,336.3,304.5,331.1,299.3z"/>
</svg>
